<?xml version="1.0" encoding="UTF-8"?>
<!DOCTYPE svg PUBLIC "-//W3C//DTD SVG 1.1//EN" "http://www.w3.org/Graphics/SVG/1.1/DTD/svg11.dtd">
<!-- Creator: CorelDRAW 2018 (64-Bit) -->
<svg xmlns="http://www.w3.org/2000/svg" xml:space="preserve" width="6in" height="0.9in" version="1.1" style="shape-rendering:geometricPrecision; text-rendering:geometricPrecision; image-rendering:optimizeQuality; fill-rule:evenodd; clip-rule:evenodd"
viewBox="0 0 6 0.9"
 xmlns:xlink="http://www.w3.org/1999/xlink">
 <defs>
  <style type="text/css">
   <![CDATA[
    .fil2 {fill:none}
    .fil3 {fill:white}
    .fil4 {fill:white;fill-rule:nonzero}
    .fil0 {fill:white;fill-opacity:0.000000}
    .fil1 {fill:white}
   ]]>
  </style>
   <clipPath id="id0">
    <path d="M0.78652 0.08444l-0.01253 0 0 0.03808c0,0.01256 -0.00845,0.02285 -0.01879,0.02285l-0.06264 0c-0.01033,0 -0.01878,-0.01029 -0.01878,-0.02285l0 -0.03808 -0.50106 0 0 0.03808c0,0.01256 -0.00845,0.02285 -0.01879,0.02285l-0.06263 0c-0.01034,0 -0.01879,-0.01029 -0.01879,-0.02285l0 -0.03808 -0.01253 0c-0.02083,0 -0.03758,0.02037 -0.03758,0.04569l0 0.63973c0,0.02532 0.01675,0.04569 0.03758,0.04569l0.01253 0 0 -0.03808c0,-0.01256 0.00845,-0.02285 0.01879,-0.02285l0.06263 0c0.01033,0 0.01879,0.01029 0.01879,0.02285l0 0.03808 0.50106 0 0 -0.03808c0,-0.01256 0.00845,-0.02285 0.01878,-0.02285l0.06264 0c0.01033,0 0.01879,0.01029 0.01879,0.02285l0 0.03808 0.01253 0c0.02082,0 0.03758,-0.02037 0.03758,-0.04569l0 -0.63973c0,-0.02532 -0.01676,-0.04569 -0.03758,-0.04569zm-0.6138 0.58642c0,0.01256 -0.00845,0.02285 -0.01879,0.02285l-0.06263 0c-0.01034,0 -0.01879,-0.01028 -0.01879,-0.02285l0 -0.07616c0,-0.01257 0.00845,-0.02285 0.01879,-0.02285l0.06263 0c0.01033,0 0.01879,0.01028 0.01879,0.02285l0 0.07616zm0 -0.18278c0,0.01257 -0.00845,0.02285 -0.01879,0.02285l-0.06263 0c-0.01034,0 -0.01879,-0.01028 -0.01879,-0.02285l0 -0.07616c0,-0.01257 0.00845,-0.02285 0.01879,-0.02285l0.06263 0c0.01033,0 0.01879,0.01028 0.01879,0.02285l0 0.07616zm0 -0.18278c0,0.01256 -0.00845,0.02284 -0.01879,0.02284l-0.06263 0c-0.01034,0 -0.01879,-0.01028 -0.01879,-0.02284l0 -0.07617c0,-0.01256 0.00845,-0.02284 0.01879,-0.02284l0.06263 0c0.01033,0 0.01879,0.01028 0.01879,0.02284l0 0.07617zm0.4259 0.39602c0,0.01257 -0.00846,0.02285 -0.01879,0.02285l-0.31316 0c-0.01033,0 -0.01879,-0.01028 -0.01879,-0.02285l0 -0.18278c0,-0.01257 0.00846,-0.02285 0.01879,-0.02285l0.31316 0c0.01033,0 0.01879,0.01028 0.01879,0.02285l0 0.18278zm0 -0.31987c0,0.01257 -0.00846,0.02285 -0.01879,0.02285l-0.31316 0c-0.01033,0 -0.01879,-0.01028 -0.01879,-0.02285l0 -0.18278c0,-0.01257 0.00846,-0.02285 0.01879,-0.02285l0.31316 0c0.01033,0 0.01879,0.01028 0.01879,0.02285l0 0.18278zm0.17537 0.28941c0,0.01256 -0.00845,0.02285 -0.01879,0.02285l-0.06264 0c-0.01033,0 -0.01878,-0.01028 -0.01878,-0.02285l0 -0.07616c0,-0.01257 0.00845,-0.02285 0.01878,-0.02285l0.06264 0c0.01033,0 0.01879,0.01028 0.01879,0.02285l0 0.07616zm0 -0.18278c0,0.01257 -0.00845,0.02285 -0.01879,0.02285l-0.06264 0c-0.01033,0 -0.01878,-0.01028 -0.01878,-0.02285l0 -0.07616c0,-0.01257 0.00845,-0.02285 0.01878,-0.02285l0.06264 0c0.01033,0 0.01879,0.01028 0.01879,0.02285l0 0.07616zm0 -0.18278c0,0.01256 -0.00845,0.02284 -0.01879,0.02284l-0.06264 0c-0.01033,0 -0.01878,-0.01028 -0.01878,-0.02284l0 -0.07617c0,-0.01256 0.00845,-0.02284 0.01878,-0.02284l0.06264 0c0.01033,0 0.01879,0.01028 0.01879,0.02284l0 0.07617z"/>
   </clipPath>
   <clipPath id="id1">
    <path d="M0.78652 0.08444l-0.01253 0 0 0.03808c0,0.01256 -0.00845,0.02285 -0.01879,0.02285l-0.06264 0c-0.01033,0 -0.01878,-0.01029 -0.01878,-0.02285l0 -0.03808 -0.50106 0 0 0.03808c0,0.01256 -0.00845,0.02285 -0.01879,0.02285l-0.06263 0c-0.01034,0 -0.01879,-0.01029 -0.01879,-0.02285l0 -0.03808 -0.01253 0c-0.02083,0 -0.03758,0.02037 -0.03758,0.04569l0 0.63973c0,0.02532 0.01675,0.04569 0.03758,0.04569l0.01253 0 0 -0.03808c0,-0.01256 0.00845,-0.02285 0.01879,-0.02285l0.06263 0c0.01033,0 0.01879,0.01029 0.01879,0.02285l0 0.03808 0.50106 0 0 -0.03808c0,-0.01256 0.00845,-0.02285 0.01878,-0.02285l0.06264 0c0.01033,0 0.01879,0.01029 0.01879,0.02285l0 0.03808 0.01253 0c0.02082,0 0.03758,-0.02037 0.03758,-0.04569l0 -0.63973c0,-0.02532 -0.01676,-0.04569 -0.03758,-0.04569zm-0.6138 0.58642c0,0.01256 -0.00845,0.02285 -0.01879,0.02285l-0.06263 0c-0.01034,0 -0.01879,-0.01028 -0.01879,-0.02285l0 -0.07616c0,-0.01257 0.00845,-0.02285 0.01879,-0.02285l0.06263 0c0.01033,0 0.01879,0.01028 0.01879,0.02285l0 0.07616zm0 -0.18278c0,0.01257 -0.00845,0.02285 -0.01879,0.02285l-0.06263 0c-0.01034,0 -0.01879,-0.01028 -0.01879,-0.02285l0 -0.07616c0,-0.01257 0.00845,-0.02285 0.01879,-0.02285l0.06263 0c0.01033,0 0.01879,0.01028 0.01879,0.02285l0 0.07616zm0 -0.18278c0,0.01256 -0.00845,0.02284 -0.01879,0.02284l-0.06263 0c-0.01034,0 -0.01879,-0.01028 -0.01879,-0.02284l0 -0.07617c0,-0.01256 0.00845,-0.02284 0.01879,-0.02284l0.06263 0c0.01033,0 0.01879,0.01028 0.01879,0.02284l0 0.07617zm0.4259 0.39602c0,0.01257 -0.00846,0.02285 -0.01879,0.02285l-0.31316 0c-0.01033,0 -0.01879,-0.01028 -0.01879,-0.02285l0 -0.18278c0,-0.01257 0.00846,-0.02285 0.01879,-0.02285l0.31316 0c0.01033,0 0.01879,0.01028 0.01879,0.02285l0 0.18278zm0 -0.31987c0,0.01257 -0.00846,0.02285 -0.01879,0.02285l-0.31316 0c-0.01033,0 -0.01879,-0.01028 -0.01879,-0.02285l0 -0.18278c0,-0.01257 0.00846,-0.02285 0.01879,-0.02285l0.31316 0c0.01033,0 0.01879,0.01028 0.01879,0.02285l0 0.18278zm0.17537 0.28941c0,0.01256 -0.00845,0.02285 -0.01879,0.02285l-0.06264 0c-0.01033,0 -0.01878,-0.01028 -0.01878,-0.02285l0 -0.07616c0,-0.01257 0.00845,-0.02285 0.01878,-0.02285l0.06264 0c0.01033,0 0.01879,0.01028 0.01879,0.02285l0 0.07616zm0 -0.18278c0,0.01257 -0.00845,0.02285 -0.01879,0.02285l-0.06264 0c-0.01033,0 -0.01878,-0.01028 -0.01878,-0.02285l0 -0.07616c0,-0.01257 0.00845,-0.02285 0.01878,-0.02285l0.06264 0c0.01033,0 0.01879,0.01028 0.01879,0.02285l0 0.07616zm0 -0.18278c0,0.01256 -0.00845,0.02284 -0.01879,0.02284l-0.06264 0c-0.01033,0 -0.01878,-0.01028 -0.01878,-0.02284l0 -0.07617c0,-0.01256 0.00845,-0.02284 0.01878,-0.02284l0.06264 0c0.01033,0 0.01879,0.01028 0.01879,0.02284l0 0.07617z"/>
   </clipPath>
 </defs>
 <g id="Layer_x0020_1">
  <metadata id="CorelCorpID_0Corel-Layer"/>
  <g style="clip-path:url(#id0)">
   <polygon class="fil0" points="0.02241,0.08444 0.8241,0.08444 0.8241,0.81556 0.02241,0.81556 "/>
  </g>
  <g style="clip-path:url(#id1)">
   <g id="_1837106596368">
    <path id="1" class="fil1" d="M0.78652 0.08444l-0.01253 0 0 0.03808c0,0.01256 -0.00845,0.02285 -0.01879,0.02285l-0.06264 0c-0.01033,0 -0.01878,-0.01029 -0.01878,-0.02285l0 -0.03808 -0.50106 0 0 0.03808c0,0.01256 -0.00845,0.02285 -0.01879,0.02285l-0.06263 0c-0.01034,0 -0.01879,-0.01029 -0.01879,-0.02285l0 -0.03808 -0.01253 0c-0.02083,0 -0.03758,0.02037 -0.03758,0.04569l0 0.63973c0,0.02532 0.01675,0.04569 0.03758,0.04569l0.01253 0 0 -0.03808c0,-0.01256 0.00845,-0.02285 0.01879,-0.02285l0.06263 0c0.01033,0 0.01879,0.01029 0.01879,0.02285l0 0.03808 0.50106 0 0 -0.03808c0,-0.01256 0.00845,-0.02285 0.01878,-0.02285l0.06264 0c0.01033,0 0.01879,0.01029 0.01879,0.02285l0 0.03808 0.01253 0c0.02082,0 0.03758,-0.02037 0.03758,-0.04569l0 -0.63973c0,-0.02532 -0.01676,-0.04569 -0.03758,-0.04569zm-0.6138 0.58642c0,0.01256 -0.00845,0.02285 -0.01879,0.02285l-0.06263 0c-0.01034,0 -0.01879,-0.01028 -0.01879,-0.02285l0 -0.07616c0,-0.01257 0.00845,-0.02285 0.01879,-0.02285l0.06263 0c0.01033,0 0.01879,0.01028 0.01879,0.02285l0 0.07616zm0 -0.18278c0,0.01257 -0.00845,0.02285 -0.01879,0.02285l-0.06263 0c-0.01034,0 -0.01879,-0.01028 -0.01879,-0.02285l0 -0.07616c0,-0.01257 0.00845,-0.02285 0.01879,-0.02285l0.06263 0c0.01033,0 0.01879,0.01028 0.01879,0.02285l0 0.07616zm0 -0.18278c0,0.01256 -0.00845,0.02284 -0.01879,0.02284l-0.06263 0c-0.01034,0 -0.01879,-0.01028 -0.01879,-0.02284l0 -0.07617c0,-0.01256 0.00845,-0.02284 0.01879,-0.02284l0.06263 0c0.01033,0 0.01879,0.01028 0.01879,0.02284l0 0.07617zm0.4259 0.39602c0,0.01257 -0.00846,0.02285 -0.01879,0.02285l-0.31316 0c-0.01033,0 -0.01879,-0.01028 -0.01879,-0.02285l0 -0.18278c0,-0.01257 0.00846,-0.02285 0.01879,-0.02285l0.31316 0c0.01033,0 0.01879,0.01028 0.01879,0.02285l0 0.18278zm0 -0.31987c0,0.01257 -0.00846,0.02285 -0.01879,0.02285l-0.31316 0c-0.01033,0 -0.01879,-0.01028 -0.01879,-0.02285l0 -0.18278c0,-0.01257 0.00846,-0.02285 0.01879,-0.02285l0.31316 0c0.01033,0 0.01879,0.01028 0.01879,0.02285l0 0.18278zm0.17537 0.28941c0,0.01256 -0.00845,0.02285 -0.01879,0.02285l-0.06264 0c-0.01033,0 -0.01878,-0.01028 -0.01878,-0.02285l0 -0.07616c0,-0.01257 0.00845,-0.02285 0.01878,-0.02285l0.06264 0c0.01033,0 0.01879,0.01028 0.01879,0.02285l0 0.07616zm0 -0.18278c0,0.01257 -0.00845,0.02285 -0.01879,0.02285l-0.06264 0c-0.01033,0 -0.01878,-0.01028 -0.01878,-0.02285l0 -0.07616c0,-0.01257 0.00845,-0.02285 0.01878,-0.02285l0.06264 0c0.01033,0 0.01879,0.01028 0.01879,0.02285l0 0.07616zm0 -0.18278c0,0.01256 -0.00845,0.02284 -0.01879,0.02284l-0.06264 0c-0.01033,0 -0.01878,-0.01028 -0.01878,-0.02284l0 -0.07617c0,-0.01256 0.00845,-0.02284 0.01878,-0.02284l0.06264 0c0.01033,0 0.01879,0.01028 0.01879,0.02284l0 0.07617z"/>
   </g>
  </g>
  <path class="fil2" d="M0.78652 0.08444l-0.01253 0 0 0.03808c0,0.01256 -0.00845,0.02285 -0.01879,0.02285l-0.06264 0c-0.01033,0 -0.01878,-0.01029 -0.01878,-0.02285l0 -0.03808 -0.50106 0 0 0.03808c0,0.01256 -0.00845,0.02285 -0.01879,0.02285l-0.06263 0c-0.01034,0 -0.01879,-0.01029 -0.01879,-0.02285l0 -0.03808 -0.01253 0c-0.02083,0 -0.03758,0.02037 -0.03758,0.04569l0 0.63973c0,0.02532 0.01675,0.04569 0.03758,0.04569l0.01253 0 0 -0.03808c0,-0.01256 0.00845,-0.02285 0.01879,-0.02285l0.06263 0c0.01033,0 0.01879,0.01029 0.01879,0.02285l0 0.03808 0.50106 0 0 -0.03808c0,-0.01256 0.00845,-0.02285 0.01878,-0.02285l0.06264 0c0.01033,0 0.01879,0.01029 0.01879,0.02285l0 0.03808 0.01253 0c0.02082,0 0.03758,-0.02037 0.03758,-0.04569l0 -0.63973c0,-0.02532 -0.01676,-0.04569 -0.03758,-0.04569zm-0.6138 0.58642c0,0.01256 -0.00845,0.02285 -0.01879,0.02285l-0.06263 0c-0.01034,0 -0.01879,-0.01028 -0.01879,-0.02285l0 -0.07616c0,-0.01257 0.00845,-0.02285 0.01879,-0.02285l0.06263 0c0.01033,0 0.01879,0.01028 0.01879,0.02285l0 0.07616zm0 -0.18278c0,0.01257 -0.00845,0.02285 -0.01879,0.02285l-0.06263 0c-0.01034,0 -0.01879,-0.01028 -0.01879,-0.02285l0 -0.07616c0,-0.01257 0.00845,-0.02285 0.01879,-0.02285l0.06263 0c0.01033,0 0.01879,0.01028 0.01879,0.02285l0 0.07616zm0 -0.18278c0,0.01256 -0.00845,0.02284 -0.01879,0.02284l-0.06263 0c-0.01034,0 -0.01879,-0.01028 -0.01879,-0.02284l0 -0.07617c0,-0.01256 0.00845,-0.02284 0.01879,-0.02284l0.06263 0c0.01033,0 0.01879,0.01028 0.01879,0.02284l0 0.07617zm0.4259 0.39602c0,0.01257 -0.00846,0.02285 -0.01879,0.02285l-0.31316 0c-0.01033,0 -0.01879,-0.01028 -0.01879,-0.02285l0 -0.18278c0,-0.01257 0.00846,-0.02285 0.01879,-0.02285l0.31316 0c0.01033,0 0.01879,0.01028 0.01879,0.02285l0 0.18278zm0 -0.31987c0,0.01257 -0.00846,0.02285 -0.01879,0.02285l-0.31316 0c-0.01033,0 -0.01879,-0.01028 -0.01879,-0.02285l0 -0.18278c0,-0.01257 0.00846,-0.02285 0.01879,-0.02285l0.31316 0c0.01033,0 0.01879,0.01028 0.01879,0.02285l0 0.18278zm0.17537 0.28941c0,0.01256 -0.00845,0.02285 -0.01879,0.02285l-0.06264 0c-0.01033,0 -0.01878,-0.01028 -0.01878,-0.02285l0 -0.07616c0,-0.01257 0.00845,-0.02285 0.01878,-0.02285l0.06264 0c0.01033,0 0.01879,0.01028 0.01879,0.02285l0 0.07616zm0 -0.18278c0,0.01257 -0.00845,0.02285 -0.01879,0.02285l-0.06264 0c-0.01033,0 -0.01878,-0.01028 -0.01878,-0.02285l0 -0.07616c0,-0.01257 0.00845,-0.02285 0.01878,-0.02285l0.06264 0c0.01033,0 0.01879,0.01028 0.01879,0.02285l0 0.07616zm0 -0.18278c0,0.01256 -0.00845,0.02284 -0.01879,0.02284l-0.06264 0c-0.01033,0 -0.01878,-0.01028 -0.01878,-0.02284l0 -0.07617c0,-0.01256 0.00845,-0.02284 0.01878,-0.02284l0.06264 0c0.01033,0 0.01879,0.01028 0.01879,0.02284l0 0.07617z"/>
  <path class="fil3" d="M4.55585 0.57941l0.00396 0.01884c0,0.00793 -0.00413,0.01735 -0.0124,0.02826 -0.02183,0.02843 -0.05689,0.06115 -0.1052,0.09817 -0.04796,0.03669 -0.08336,0.05503 -0.10619,0.05503 -0.02283,0 -0.04069,-0.00661 -0.05358,-0.01983 -0.0129,-0.01354 -0.01935,-0.02892 -0.01935,-0.04611 0,-0.02049 0.0215,-0.06577 0.0645,-0.13585 0.0645,-0.10412 0.14687,-0.22576 0.24711,-0.36492 -0.02117,0.02182 -0.0774,0.08066 -0.16871,0.17652 -0.20211,0.21154 -0.32022,0.33136 -0.35429,0.35945 -0.00562,0.00463 -0.01389,0.00694 -0.02481,0.00694 -0.01059,0 -0.02183,-0.0043 -0.03374,-0.01289 -0.01191,-0.00892 -0.01785,-0.01884 -0.01785,-0.02974l0 -0.00248c0.00131,-0.01388 0.03324,-0.0818 0.09576,-0.20378 0.06252,-0.12196 0.11495,-0.21898 0.1573,-0.29104 -0.06253,0.06875 -0.1257,0.14543 -0.18956,0.23005 -0.12139,0.16064 -0.21022,0.29748 -0.26646,0.41053 -0.00496,0.01057 -0.01108,0.01587 -0.01836,0.01587 -0.00728,0 -0.01785,-0.00181 -0.03175,-0.00546 -0.02911,-0.00793 -0.04367,-0.02181 -0.04367,-0.04165 0,-0.0119 0.02432,-0.05437 0.07295,-0.12742 0.04863,-0.07338 0.10502,-0.15337 0.1692,-0.23997 0.06417,-0.08693 0.13067,-0.17056 0.19948,-0.25087 0.09494,-0.11106 0.15597,-0.16659 0.18309,-0.16659 0.0043,0 0.00845,0.00115 0.01242,0.00347 0.00396,0.00198 0.00645,0.00297 0.00744,0.00297 0.00099,0 0.00198,-0.0005 0.00298,-0.00148 0.00431,-0.00529 0.01274,-0.00793 0.02531,-0.00793 0.0129,0 0.02531,0.00248 0.03722,0.00743 0.01224,0.00496 0.01836,0.01058 0.01836,0.01686 0,0.00396 -0.01656,0.03554 -0.04963,0.0947 -0.1108,0.19634 -0.18525,0.33119 -0.22328,0.40457 0.03639,-0.04396 0.08831,-0.1023 0.15581,-0.17502 0.06781,-0.07272 0.13893,-0.14527 0.21337,-0.21765 0.09691,-0.09387 0.1548,-0.14081 0.17367,-0.14081 0.0076,0 0.0172,0.00165 0.02878,0.00496 0.02052,0.00595 0.04019,0.00892 0.05906,0.00892 0.00529,0.001 0.00974,0.0033 0.01339,0.00694 0.00398,0.00331 0.00596,0.00678 0.00596,0.01041 0,0.00363 -0.001,0.00661 -0.00297,0.00892 -0.10753,0.1428 -0.19817,0.26873 -0.27193,0.3778 -0.07376,0.10908 -0.11925,0.18279 -0.13646,0.22113 0.03474,-0.00727 0.08652,-0.04876 0.15532,-0.12444 0.00297,-0.00397 0.00512,-0.00661 0.00645,-0.00793 0.00132,-0.00132 0.00248,-0.00265 0.00346,-0.00397 0.00564,-0.00661 0.00993,-0.00248 0.0129,0.0124 0.00133,0.00859 0.00216,0.01471 0.00248,0.01834 0.00067,0.0033 0.00115,0.00694 0.00149,0.01091 0.00067,0.00364 0.00099,0.00612 0.00099,0.00744z"/>
  <path class="fil3" d="M4.94922 0.28606c0.00993,0 0.02001,0.00446 0.03027,0.01339 0.01059,0.00893 0.01589,0.02264 0.01589,0.04115 0,0.01818 -0.00645,0.04198 -0.01935,0.07139 -0.0129,0.02909 -0.03061,0.05884 -0.05309,0.08925 -0.0225,0.03008 -0.04731,0.0585 -0.07443,0.08528 -0.02681,0.02645 -0.05591,0.04826 -0.08735,0.06545 -0.03109,0.01685 -0.05937,0.02529 -0.08485,0.02529 -0.02547,0 -0.04597,-0.00794 -0.06152,-0.0238 -0.01522,-0.01619 -0.02283,-0.0385 -0.02283,-0.06693 0,-0.02876 0.00694,-0.06048 0.02085,-0.09519 0.01422,-0.0347 0.03241,-0.06528 0.05457,-0.09172 0.02216,-0.02678 0.04614,-0.05074 0.07196,-0.07189 0.05391,-0.0433 0.10122,-0.06495 0.1419,-0.06495 0.0182,0 0.03193,0.00446 0.04119,0.01339 0.00331,0.00298 0.00497,0.00562 0.00497,0.00793l0 0.00298c0.00463,-0.00066 0.01191,-0.00099 0.02182,-0.00099zm-0.05011 0.06594l-0.00348 0c-0.01159,0 -0.01737,-0.00843 -0.01737,-0.02529 -0.02415,0.00794 -0.04946,0.02182 -0.07593,0.04165 -0.02646,0.01983 -0.05011,0.04331 -0.07095,0.07041 -0.04234,0.0542 -0.06385,0.09998 -0.0645,0.13733 0,0.01851 0.00677,0.02776 0.02034,0.02776 0.01355,0 0.03375,-0.00892 0.06054,-0.02677 0.02679,-0.01785 0.05326,-0.0433 0.07938,-0.07635 0.02646,-0.03306 0.04616,-0.06165 0.05906,-0.08577 0.01323,-0.02446 0.01984,-0.04099 0.01984,-0.04958 0,-0.00893 -0.00231,-0.01339 -0.00694,-0.01339z"/>
  <path class="fil3" d="M5.40893 0.27846c0,0.0228 -0.01274,0.05619 -0.03819,0.10015 -0.02548,0.04363 -0.05823,0.08792 -0.09826,0.13288 -0.03969,0.04495 -0.08187,0.08395 -0.12654,0.11701 -0.04465,0.03272 -0.07954,0.04908 -0.1047,0.04908 -0.01356,0 -0.02596,-0.00496 -0.0372,-0.01487 -0.01126,-0.00992 -0.01688,-0.02562 -0.01688,-0.0471 0,-0.02181 0.01026,-0.05602 0.03078,-0.10263 0.0205,-0.04661 0.04069,-0.08594 0.06054,-0.118 -0.01753,0.01289 -0.02828,0.01933 -0.03225,0.01933 -0.00364,0 -0.00845,-0.00429 -0.01439,-0.01289 -0.00562,-0.00859 -0.00843,-0.0152 -0.00843,-0.01983 0,-0.00496 0.00083,-0.00859 0.00247,-0.01091 0.06517,-0.07239 0.11117,-0.10858 0.13796,-0.10858 0.01124,0 0.02066,0.00331 0.02828,0.00992 0.0076,0.00661 0.0114,0.01454 0.0114,0.0238 0,0.00926 -0.01124,0.03586 -0.03374,0.07982 -0.02248,0.04397 -0.04498,0.08842 -0.06747,0.13337 -0.0225,0.04463 -0.03375,0.07272 -0.03375,0.08429 0,0.00198 0.001,0.00297 0.00298,0.00297 0.00861,0 0.03176,-0.01702 0.06947,-0.05107 0.03804,-0.03437 0.0688,-0.06627 0.0923,-0.09569 0.02348,-0.02942 0.044,-0.059 0.06153,-0.08875 0.01786,-0.02975 0.02679,-0.04925 0.02679,-0.0585 0,-0.00926 -0.00198,-0.01685 -0.00596,-0.02281 -0.00362,-0.00628 -0.00545,-0.01289 -0.00545,-0.01983 0,-0.00727 0.0048,-0.0152 0.01438,-0.0238 0.00993,-0.00892 0.02251,-0.01339 0.03771,-0.01339 0.0311,0 0.04665,0.01868 0.04665,0.05603z"/>
  <path class="fil3" d="M5.69216 0.11177c0,0.01884 -0.00878,0.03784 -0.0263,0.05702 -0.01753,0.01884 -0.03589,0.02826 -0.05508,0.02826 -0.01885,0 -0.02828,-0.00991 -0.02828,-0.02975 0,-0.01983 0.00827,-0.03867 0.02481,-0.05652 0.01688,-0.01819 0.0354,-0.02727 0.05558,-0.02727 0.00894,0 0.01604,0.00248 0.02133,0.00744 0.0053,0.00495 0.00794,0.0119 0.00794,0.02082zm-0.08039 0.43283c0,0.00992 -0.001,0.01702 -0.00298,0.02132 -0.01621,0.03306 -0.04201,0.05983 -0.0774,0.08032 -0.03541,0.02017 -0.06618,0.03024 -0.0923,0.03024 -0.02614,0 -0.04863,-0.00876 -0.06749,-0.02628 -0.01884,-0.01752 -0.02828,-0.03536 -0.02828,-0.05355 0,-0.01818 0.00909,-0.04462 0.0273,-0.07932 0.0182,-0.03471 0.03639,-0.06678 0.05459,-0.09619 0.0182,-0.02942 0.02728,-0.04529 0.02728,-0.04759 0,-0.00265 -0.00346,-0.0076 -0.01041,-0.01488 -0.00661,-0.00727 -0.00993,-0.01256 -0.00993,-0.01586 0,-0.00364 0.00679,-0.01273 0.02034,-0.02727 0.01391,-0.01487 0.03061,-0.02942 0.05012,-0.04363 0.01985,-0.01454 0.0349,-0.02181 0.04515,-0.02181 0.01059,0 0.02002,0.00462 0.02828,0.01388 0.00827,0.00926 0.01241,0.01768 0.01241,0.02528 0,0.0076 -0.03937,0.07916 -0.1181,0.21468 -0.00099,0.00199 -0.0038,0.00645 -0.00843,0.01339 -0.00431,0.00661 -0.00778,0.01222 -0.01043,0.01685 -0.0023,0.00429 -0.00511,0.00959 -0.00843,0.01586 -0.00661,0.01323 -0.00992,0.0243 -0.00992,0.03322 0,0.01124 0.00762,0.01686 0.02282,0.01686 0.01522,0 0.03094,-0.00512 0.04715,-0.01537 0.01654,-0.01057 0.03076,-0.02215 0.04267,-0.03471 0.03109,-0.03338 0.04879,-0.05007 0.0531,-0.05007 0.00861,0 0.0129,0.01487 0.0129,0.04462z"/>
  <path class="fil3" d="M5.90759 0.28003c0,0.02181 -0.00893,0.04098 -0.02679,0.05751 -0.01753,0.01652 -0.03754,0.02479 -0.06005,0.02479 -0.00728,0 -0.01207,-0.00165 -0.01437,-0.00496 -0.00233,-0.00363 -0.00348,-0.00826 -0.00348,-0.01388 0,-0.00562 0.00067,-0.01107 0.00198,-0.01636 -0.01191,0.00396 -0.02513,0.01008 -0.0397,0.01834 -0.01455,0.00826 -0.03243,0.0205 -0.05359,0.03669 -0.02117,0.0162 -0.03175,0.02826 -0.03175,0.03619 0,0.00265 0.0038,0.00397 0.01141,0.00397 0.00794,0 0.02002,-0.00264 0.03623,-0.00794 0.0162,-0.00562 0.02744,-0.00843 0.03373,-0.00843 0.00663,0 0.01092,0.00033 0.0129,0.00099 0.0043,0.00231 0.00893,0.00743 0.01391,0.01537 0.00495,0.0076 0.00744,0.01372 0.00744,0.01835 0,0.0043 -0.00431,0.01008 -0.0129,0.01735 -0.00861,0.00727 -0.01836,0.01289 -0.02928,0.01685 -0.01092,0.00364 -0.01819,0.00644 -0.02183,0.00843 -0.0698,0.03901 -0.1047,0.06578 -0.1047,0.08033 0,0.02578 0.022,0.03867 0.066,0.03867 0.02811,0 0.05639,-0.00892 0.08484,-0.02676 0.02416,-0.01521 0.04581,-0.03058 0.065,-0.04612 0.01952,-0.01586 0.03176,-0.02561 0.03672,-0.02925 0.00529,-0.00363 0.00926,-0.00545 0.01191,-0.00545 0.00861,0 0.0129,0.00959 0.0129,0.02875 0,0.01918 -0.00115,0.0319 -0.00348,0.03818 -0.00231,0.00595 -0.00892,0.01339 -0.01984,0.02231 -0.07079,0.05751 -0.13779,0.08627 -0.20096,0.08627 -0.03375,0 -0.06072,-0.00463 -0.08089,-0.01388 -0.03704,-0.01686 -0.05556,-0.04264 -0.05556,-0.07734 0,-0.04562 0.03158,-0.08016 0.09477,-0.10362 -0.01258,-0.00562 -0.02067,-0.01273 -0.02431,-0.02132 -0.00364,-0.00893 -0.00546,-0.02297 -0.00546,-0.04214 0,-0.0195 0.00891,-0.04 0.02678,-0.06148 0.0182,-0.02182 0.04036,-0.03966 0.06648,-0.05355 0.05823,-0.0314 0.11018,-0.04711 0.15581,-0.04711 0.01092,0 0.02199,0.00265 0.03326,0.00794 0.01124,0.00529 0.01686,0.01273 0.01686,0.02231z"/>
  <path class="fil4" d="M1.04021 0.72413l0 -0.55594 0.13902 0c0.0205,0.00026 0.04054,0.00326 0.05997,0.00899 0.01943,0.00573 0.03672,0.01459 0.05186,0.02632 0.01514,0.01186 0.02731,0.02685 0.03648,0.04509 0.00918,0.01824 0.01371,0.03988 0.01347,0.06516 0,0.01577 -0.00226,0.02998 -0.00668,0.04248 -0.00441,0.01264 -0.01037,0.02385 -0.018,0.03362 -0.00751,0.00978 -0.01645,0.01838 -0.0267,0.02554 -0.01025,0.0073 -0.02134,0.01329 -0.03315,0.01824 0.01467,0.00378 0.02826,0.00965 0.04066,0.01746 0.01252,0.00795 0.02325,0.01772 0.03231,0.02919 0.00906,0.0116 0.01621,0.02476 0.02146,0.03962 0.00524,0.01472 0.00787,0.03063 0.00787,0.0477 0.00024,0.02463 -0.00394,0.04665 -0.01252,0.06581 -0.0087,0.01929 -0.02027,0.03557 -0.03493,0.04887 -0.01467,0.01342 -0.0316,0.02359 -0.05079,0.03075 -0.01931,0.00717 -0.03935,0.01082 -0.06033,0.01108l-0.16 0zm0.04197 -0.26728l0 0.22754 0.1191 0c0.01539,-0.00026 0.03005,-0.00313 0.044,-0.0086 0.01395,-0.00548 0.02623,-0.01317 0.03684,-0.02307 0.01061,-0.00991 0.01896,-0.02189 0.02516,-0.0361 0.0062,-0.01407 0.0093,-0.03024 0.0093,-0.04822 0,-0.01759 -0.00298,-0.03323 -0.00894,-0.04679 -0.00596,-0.01368 -0.01406,-0.02515 -0.02444,-0.03453 -0.01037,-0.00952 -0.02242,-0.01668 -0.03601,-0.02176 -0.01359,-0.00508 -0.0279,-0.00795 -0.0428,-0.00847l-0.1222 0zm0 -0.03935l0.1023 0c0.01467,-0.00026 0.02897,-0.00248 0.04268,-0.00678 0.01371,-0.00443 0.02587,-0.01081 0.03648,-0.01955 0.01061,-0.0086 0.01919,-0.01942 0.02563,-0.03245 0.00656,-0.0129 0.00978,-0.02841 0.00978,-0.04613 0,-0.01864 -0.00334,-0.03441 -0.01013,-0.04757 -0.00668,-0.01316 -0.01574,-0.02385 -0.02683,-0.03206 -0.01121,-0.00834 -0.02384,-0.01433 -0.03815,-0.01837 -0.01419,-0.00391 -0.02874,-0.006 -0.04364,-0.00626l-0.09812 0 0 0.20916z"/>
  <path id="1" class="fil4" d="M1.72277 0.65962c-0.01252,0.02268 -0.02909,0.04027 -0.04972,0.05304 -0.02062,0.01277 -0.04507,0.01916 -0.0732,0.01916 -0.02098,0 -0.03934,-0.00378 -0.05531,-0.01108 -0.01598,-0.00743 -0.02933,-0.01824 -0.04018,-0.03245 -0.01085,-0.01433 -0.01907,-0.0318 -0.0248,-0.05239 -0.00572,-0.02059 -0.00859,-0.04418 -0.00859,-0.07063l0 -0.25425 0.04161 0 0 0.25504c0.00047,0.04144 0.00811,0.07298 0.02301,0.09435 0.01491,0.02137 0.03791,0.03206 0.06915,0.03206 0.03147,0 0.05699,-0.00795 0.07654,-0.02372 0.01956,-0.01577 0.03315,-0.03714 0.04089,-0.06411l-0.00035 -0.29361 0.0422 0 0 0.41311 -0.03911 0 -0.00215 -0.06451z"/>
  <path id="2" class="fil4" d="M2.14865 0.30333c0.01049,0 0.02098,0.00078 0.03147,0.00222 0.01049,0.0013 0.0192,0.00326 0.02623,0.00587l-0.00524 0.04392c-0.00978,-0.00235 -0.01967,-0.00404 -0.02945,-0.00534 -0.00978,-0.0013 -0.01979,-0.00196 -0.03004,-0.00196 -0.03529,0 -0.06534,0.00925 -0.09002,0.0275 -0.02468,0.01837 -0.04209,0.04652 -0.0521,0.08445l0.00036 0.26415 -0.04328 0 0 -0.41311 0.04018 0 0.00274 0.07181 0 0.00834c0.01538,-0.02724 0.03577,-0.04861 0.06116,-0.06424 0.0254,-0.01577 0.05472,-0.02359 0.08799,-0.02359z"/>
  <path id="3" class="fil4" d="M2.46722 0.20533l0 0.10569 0.14009 0 0 0.0374 -0.14009 0 0 0.25998c0.00024,0.01603 0.0025,0.02932 0.00692,0.03988 0.00429,0.01069 0.01013,0.01916 0.01741,0.02567 0.00739,0.00652 0.01598,0.01108 0.02587,0.01394 0.0099,0.00274 0.02063,0.00417 0.03231,0.00417 0.01156,0 0.02361,-0.00091 0.03576,-0.00274 0.01228,-0.00169 0.02265,-0.00352 0.03124,-0.00534l0.00632 0.0348c-0.01002,0.0043 -0.02218,0.00756 -0.03672,0.00977 -0.01443,0.00209 -0.02909,0.00326 -0.044,0.00326 -0.01669,0 -0.03219,-0.00235 -0.04638,-0.00678 -0.01431,-0.00443 -0.02658,-0.0116 -0.03707,-0.02137 -0.01049,-0.00977 -0.01872,-0.02254 -0.0248,-0.03818 -0.00608,-0.01564 -0.00918,-0.0348 -0.00942,-0.05747l0 -0.25959 -0.10516 0 0 -0.0374 0.10516 0 0 -0.10569 0.04256 0z"/>
  <path id="4" class="fil4" d="M2.73559 0.51144c0.00024,-0.02802 0.00417,-0.0546 0.0118,-0.07975 0.00775,-0.02515 0.01872,-0.04731 0.03303,-0.0662 0.01431,-0.01903 0.03195,-0.03415 0.05281,-0.04535 0.02075,-0.0112 0.04435,-0.01681 0.0707,-0.01681 0.02659,0 0.05019,0.00561 0.07106,0.01681 0.02087,0.01121 0.03851,0.02633 0.05294,0.04535 0.01443,0.01889 0.02552,0.04105 0.03315,0.0662 0.00775,0.02515 0.01169,0.05174 0.01192,0.07975l0 0.01264c-0.00024,0.02802 -0.00417,0.0546 -0.01169,0.07976 -0.00763,0.02515 -0.0186,0.04731 -0.03302,0.0662 -0.01443,0.01903 -0.03207,0.03401 -0.05281,0.04509 -0.02063,0.01108 -0.04435,0.01668 -0.07082,0.01668 -0.02659,0 -0.05031,-0.0056 -0.07106,-0.01668 -0.02087,-0.01108 -0.03851,-0.02606 -0.05294,-0.04509 -0.01443,-0.01889 -0.02552,-0.04105 -0.03326,-0.0662 -0.00763,-0.02515 -0.01157,-0.05174 -0.0118,-0.07976l0 -0.01264zm0.04185 0.01264c0,0.02189 0.00286,0.043 0.00846,0.06333 0.00561,0.02033 0.01371,0.03844 0.02444,0.05408 0.01073,0.01564 0.02385,0.02815 0.03958,0.03753 0.01574,0.00951 0.03398,0.0142 0.05473,0.0142 0.0205,0 0.03863,-0.00469 0.05425,-0.0142 0.01574,-0.00938 0.02897,-0.02189 0.03946,-0.03753 0.01061,-0.01564 0.01872,-0.03375 0.02432,-0.05408 0.0056,-0.02033 0.00835,-0.04144 0.00835,-0.06333l0 -0.01264c0,-0.02163 -0.00274,-0.04261 -0.00835,-0.06294 -0.0056,-0.02046 -0.01371,-0.03844 -0.02444,-0.05408 -0.01073,-0.01564 -0.02396,-0.02828 -0.03982,-0.03779 -0.01585,-0.00952 -0.03398,-0.01433 -0.05448,-0.01433 -0.02051,0 -0.03863,0.00482 -0.05437,0.01433 -0.01561,0.00951 -0.02885,0.02215 -0.03946,0.03779 -0.01061,0.01564 -0.0186,0.03362 -0.0242,0.05408 -0.0056,0.02033 -0.00846,0.04131 -0.00846,0.06294l0 0.01264z"/>
  <path id="5" class="fil4" d="M3.22502 0.31102l0.0031 0.07754c0.01323,-0.02567 0.031,-0.04626 0.05306,-0.06164 0.02218,-0.01538 0.04733,-0.02333 0.07547,-0.02359 0.04149,0 0.0732,0.01356 0.09502,0.04066 0.02194,0.02724 0.03291,0.06568 0.03314,0.11559l0 0.26455 -0.04185 0 0 -0.26376c-0.00024,-0.03792 -0.00811,-0.06711 -0.02372,-0.08731 -0.01562,-0.0202 -0.03982,-0.03023 -0.07273,-0.02997 -0.01347,0 -0.02635,0.00248 -0.03863,0.0073 -0.01217,0.00482 -0.02337,0.01147 -0.03351,0.01981 -0.01013,0.00847 -0.01907,0.01837 -0.02682,0.02984 -0.00787,0.01147 -0.01419,0.02385 -0.01908,0.0374l0 0.2867 -0.04196 0 0 -0.41311 0.03851 0z"/>
 </g>
</svg>
